# xmcd
#
# Track frame offsets:
#	150
#	10960
#	24455
#	36195
#	49945
#	61500
#	71155
#	88168
#	101978
#	115053
#	127511
#	141971
#	155774
#	171024
#	183867
#	199427
#	214385
#	231983
#	243536
#	254976
#
# Disc length: 3620 seconds
#
# Revision: 0
# Processed by: cddbd v1.5.2PL0 Copyright (c) Steve Scherf et al.
# Submitted via: EasyCDDAExtractor 16.0.1.1
#
DISCID=2b0e2214
DTITLE=Wanda Jackson - I'll Still Love You +Closer To Jesus
DYEAR=1976
DGENRE=Gospel
TTITLE0=I'll Still love You
TTITLE1=My Umbrella
TTITLE2=Teardrop No 1
TTITLE3=Everybody's Had The Blues
TTITLE4=Slippin' Away
TTITLE5=Jesus Put The Yodel In My Soul
TTITLE6=Where Do I Put His Memory
TTITLE7=Funny Face
TTITLE8=Take A Look
TTITLE9=I Can't Stand To Hear You Say Goodbye
TTITLE10=Where I'm Going
TTITLE11=The World Didn't Give It To Me
TTITLE12=The Carpenter's Son
TTITLE13=Grandma Sang Off Key
TTITLE14=He Was There All The Time
TTITLE15=Closer To Jesus
TTITLE16=Learning To Lean
TTITLE17=I Came To Praise the Lord+I Just Feel Like Something good Is About To
TTITLE17=Happen& Get All Exited
TTITLE18=Walkin' In The Spirit
TTITLE19=He's Been Through It Too
EXTD=
EXTT0=
EXTT1=
EXTT2=
EXTT3=
EXTT4=
EXTT5=
EXTT6=
EXTT7=
EXTT8=
EXTT9=
EXTT10=
EXTT11=
EXTT12=
EXTT13=
EXTT14=
EXTT15=
EXTT16=
EXTT17=
EXTT18=
EXTT19=
PLAYORDER=
